<svg xmlns="http://www.w3.org/2000/svg" width="462" height="363.615" viewBox="0 0 462 363.615">
  <g id="Group_85" data-name="Group 85" transform="translate(0.121)">
    <path id="Path_714" data-name="Path 714" d="M445.292,195.615h-1.91V143.286A30.286,30.286,0,0,0,413.1,113H302.23a30.286,30.286,0,0,0-30.286,30.286V430.365a30.286,30.286,0,0,0,30.286,30.286H413.1a30.286,30.286,0,0,0,30.286-30.286v-197.5h1.91Z" transform="translate(-217.98 -113)" fill="#3f3d56"/>
    <path id="Path_715" data-name="Path 715" d="M421.028,128.933H406.556a10.746,10.746,0,0,1-9.949,14.8H333.094a10.746,10.746,0,0,1-9.949-14.8H309.628a22.618,22.618,0,0,0-22.618,22.617V438.208a22.618,22.618,0,0,0,22.618,22.617h111.4a22.617,22.617,0,0,0,22.617-22.617V151.55a22.617,22.617,0,0,0-22.617-22.618ZM418.6,261.915a5.876,5.876,0,0,1-5.858,5.858H384.422a5.876,5.876,0,0,1-5.858-5.858V260.45a5.876,5.876,0,0,1,5.858-5.858h28.316a5.876,5.876,0,0,1,5.858,5.858Zm3.173-25.875a5.876,5.876,0,0,1-5.858,5.858H314.366a5.876,5.876,0,0,1-5.858-5.858v-1.465a5.876,5.876,0,0,1,5.858-5.858H415.911a5.876,5.876,0,0,1,5.858,5.858Zm0-25.875a5.876,5.876,0,0,1-5.858,5.858H314.366a5.876,5.876,0,0,1-5.858-5.858V208.7a5.876,5.876,0,0,1,5.858-5.858H415.911a5.876,5.876,0,0,1,5.858,5.858Zm0-25.875a5.876,5.876,0,0,1-5.858,5.858H314.366a5.876,5.876,0,0,1-5.858-5.858v-1.465a5.876,5.876,0,0,1,5.858-5.858H415.911a5.876,5.876,0,0,1,5.858,5.858Z" transform="translate(-224.919 -120.337)" fill="#fff"/>
    <circle id="Ellipse_43" data-name="Ellipse 43" cx="3.417" cy="3.417" r="3.417" transform="translate(88.226 111.798)" fill="#fff"/>
    <circle id="Ellipse_44" data-name="Ellipse 44" cx="3.417" cy="3.417" r="3.417" transform="translate(99.455 111.798)" fill="#fff"/>
    <circle id="Ellipse_45" data-name="Ellipse 45" cx="3.417" cy="3.417" r="3.417" transform="translate(110.683 111.798)" fill="#fff"/>
    <circle id="Ellipse_46" data-name="Ellipse 46" cx="3.417" cy="3.417" r="3.417" transform="translate(121.912 111.798)" fill="#fff"/>
    <circle id="Ellipse_47" data-name="Ellipse 47" cx="3.417" cy="3.417" r="3.417" transform="translate(158.527 137.673)" fill="#fff"/>
    <circle id="Ellipse_48" data-name="Ellipse 48" cx="3.417" cy="3.417" r="3.417" transform="translate(169.756 137.673)" fill="#fff"/>
    <circle id="Ellipse_49" data-name="Ellipse 49" cx="3.417" cy="3.417" r="3.417" transform="translate(180.985 137.673)" fill="#fff"/>
    <path id="Path_716" data-name="Path 716" d="M430.644,456.6H314.834a10.259,10.259,0,0,0-10.259,10.259v56.425a10.259,10.259,0,0,0,10.259,10.259h115.81A10.259,10.259,0,0,0,440.9,523.285V466.86A10.259,10.259,0,0,0,430.644,456.6Zm-118.675,7c.229-.041,5.652-.964,10.142,1.738s6.215,7.925,6.286,8.146l.181.563-.583.1a15.465,15.465,0,0,1-2.513.185,14.964,14.964,0,0,1-7.629-1.923c-4.49-2.7-6.215-7.925-6.286-8.146l-.182-.563Zm25.139,52.387H316.453a5.68,5.68,0,1,1,0-11.361h20.656a5.68,5.68,0,0,1,0,11.361Zm93.984-1.033a6.215,6.215,0,0,1-6.2,6.2H409.4a6.215,6.215,0,0,1-6.2-6.2v-9.3a6.215,6.215,0,0,1,6.2-6.2h15.492a6.215,6.215,0,0,1,6.2,6.2Z" transform="translate(-233.008 -271.233)" fill="#6c63ff"/>
    <path id="Path_717" data-name="Path 717" d="M501.395,561.213h-6.228a1.677,1.677,0,1,0,0,3.354H501.4a1.677,1.677,0,0,0,0-3.354Z" transform="translate(-320.005 -319.408)" fill="#3f3d56"/>
    <path id="Path_718" data-name="Path 718" d="M522.71,561.213h-6.229a1.677,1.677,0,0,0,0,3.354h6.229a1.677,1.677,0,0,0,0-3.354Z" transform="translate(-329.821 -319.408)" fill="#3f3d56"/>
    <path id="Path_719" data-name="Path 719" d="M501.393,552.438h-6.229a1.677,1.677,0,0,0,0,3.354h6.229a1.677,1.677,0,1,0,0-3.354Z" transform="translate(-320.004 -315.367)" fill="#3f3d56"/>
    <path id="Path_720" data-name="Path 720" d="M522.708,552.438h-6.229a1.677,1.677,0,0,0,0,3.354h6.229a1.677,1.677,0,1,0,0-3.354Z" transform="translate(-329.82 -315.367)" fill="#3f3d56"/>
    <path id="Path_721" data-name="Path 721" d="M501.393,543.841h-6.229a1.677,1.677,0,0,0,0,3.354h6.229a1.677,1.677,0,1,0,0-3.354Z" transform="translate(-320.004 -311.408)" fill="#3f3d56"/>
    <path id="Path_722" data-name="Path 722" d="M522.708,543.841h-6.229a1.677,1.677,0,0,0,0,3.354h6.229a1.677,1.677,0,1,0,0-3.354Z" transform="translate(-329.82 -311.408)" fill="#3f3d56"/>
    <rect id="Rectangle_34" data-name="Rectangle 34" width="15" height="15" transform="translate(262.879 206.807)" fill="#e6e6e6"/>
    <path id="Path_723" data-name="Path 723" d="M625.939,513h24.816v24.816H625.939Zm23.737,1.079H627.018v22.658h22.659Z" transform="translate(-380.999 -297.205)" fill="#3f3d56"/>
    <rect id="Rectangle_35" data-name="Rectangle 35" width="15" height="15" transform="translate(-0.121 81.807)" fill="#e6e6e6"/>
    <path id="Path_724" data-name="Path 724" d="M211.755,254.816H186.939V230h24.816Zm-23.737-1.079h22.658V231.079H188.018Z" transform="translate(-178.835 -166.88)" fill="#3f3d56"/>
    <path id="Path_725" data-name="Path 725" d="M644.745,639.64h-6.614l-3.146-25.511h9.761Z" transform="translate(-292.406 -282.814)" fill="#ffb8b8"/>
    <path id="Path_726" data-name="Path 726" d="M625.2,657.914H637.96v8.031H617.173A8.031,8.031,0,0,1,625.2,657.914Z" transform="translate(-284.204 -302.978)" fill="#2f2e41"/>
    <path id="Path_727" data-name="Path 727" d="M705.745,639.64h-6.614l-3.146-25.511h9.761Z" transform="translate(-320.498 -282.814)" fill="#ffb8b8"/>
    <path id="Path_728" data-name="Path 728" d="M686.2,657.914H698.96v8.031H678.173A8.031,8.031,0,0,1,686.2,657.914Z" transform="translate(-312.295 -302.978)" fill="#2f2e41"/>
    <path id="Path_729" data-name="Path 729" d="M762.661,545.109a5.8,5.8,0,0,1,2.433-8.547l22.484-61.969,11.063,6.038-25.671,59.22a5.827,5.827,0,0,1-10.309,5.259Z" transform="translate(-443.501 -279.518)" fill="#ffb8b8"/>
    <path id="Path_730" data-name="Path 730" d="M872.476,563.462a5.8,5.8,0,0,1-1.561-8.749l-6.965-65.553,12.59.575,2.894,64.48a5.827,5.827,0,0,1-6.959,9.246Z" transform="translate(-490.607 -286.227)" fill="#ffb8b8"/>
    <circle id="Ellipse_50" data-name="Ellipse 50" cx="13.25" cy="13.25" r="13.25" transform="translate(348.534 157.096)" fill="#ffb8b8"/>
    <path id="Path_731" data-name="Path 731" d="M845.5,536.22H805.55l.048-.311c.072-.465,7.12-46.633,1.922-61.737a6.373,6.373,0,0,1,3.274-7.868h0c7.43-3.5,21.691-7.807,33.729,2.648a15.233,15.233,0,0,1,5.1,12.622Z" transform="translate(-463.713 -273.893)" fill="#ccc"/>
    <path id="Path_732" data-name="Path 732" d="M804.42,499.881l-17.985-3.649,8.43-19.977a7.551,7.551,0,1,1,14.623,3.775Z" transform="translate(-454.91 -277.674)" fill="#ccc"/>
    <path id="Path_733" data-name="Path 733" d="M861.419,507.849l-1.081-24.785c-.82-4.659,1.847-9.064,5.949-9.784s8.109,2.514,8.933,7.207l4.064,23.159Z" transform="translate(-488.875 -278.868)" fill="#ccc"/>
    <path id="Path_734" data-name="Path 734" d="M842.331,593.752c6.428,24.48,7.129,55.6,5.395,89.555l-8.632-1.079L823.449,617.49l-8.632,65.818-9.711-.54c-2.9-35.622-5.726-66.2-1.079-86.318Z" transform="translate(-461.875 -334.392)" fill="#2f2e41"/>
    <path id="Path_735" data-name="Path 735" d="M837.674,422.473a4.28,4.28,0,0,1-7.385-2.378,4.342,4.342,0,0,1,.005-.839c.166-1.593,1.087-3.04.866-4.722a2.474,2.474,0,0,0-.453-1.159c-1.97-2.638-6.594,1.18-8.453-1.208-1.14-1.464.2-3.769-.675-5.406-1.155-2.16-4.574-1.094-6.719-2.277-2.386-1.316-2.243-4.977-.673-7.2a11.332,11.332,0,0,1,8.591-4.373,23.044,23.044,0,0,1,9.707,1.894c3.518,1.371,7.007,3.266,9.172,6.359,2.633,3.762,2.886,8.82,1.569,13.218C842.426,417.054,839.693,420.323,837.674,422.473Z" transform="translate(-467.159 -241.886)" fill="#2f2e41"/>
    <path id="Path_736" data-name="Path 736" d="M851.144,786.079H645.6a.539.539,0,1,1,0-1.079H851.144a.539.539,0,1,1,0,1.079Z" transform="translate(-389.805 -422.464)" fill="#3f3d56"/>
  </g>
</svg>
