<svg id="Capa_1" enable-background="new 0 0 512 512" height="512" viewBox="0 0 512 512" width="512" xmlns="http://www.w3.org/2000/svg"><g><path d="m512 256c0 121.429-84.533 223.104-197.963 249.387l-2.325-1.056c-5.685-2.56-12.373-.619-15.808 4.565v.011c-13.003 2.037-26.325 3.093-39.904 3.093-141.387 0-256-114.613-256-256s114.613-256 256-256 256 114.613 256 256z" fill="#654baa"/><g><g><path d="m512 256c0 65.237-24.405 124.779-64.576 169.984-13.472 15.168-28.725 28.715-45.419 40.331-26.187 18.208-55.925 31.648-87.968 39.072l-2.325-1.056c-5.685-2.56-12.384-.619-15.808 4.576-13.003 2.037-26.325 3.093-39.904 3.093-54.272 0-104.587-16.885-146.005-45.685-16.693-11.616-31.947-25.163-45.419-40.331-40.171-45.205-64.576-104.747-64.576-169.984 0-46.219 12.245-89.568 33.675-126.997 44.128 77.066 127.168 129.002 222.325 129.002 37.792 0 73.675-8.192 105.973-22.901 3.221-1.461 6.4-2.997 9.536-4.587 2.976-1.504 5.909-3.072 8.811-4.693 40.832-22.709 74.805-56.288 98.005-96.821 21.43 37.429 33.675 80.778 33.675 126.997z" fill="#513390"/></g></g><g><g><path d="m401.653 342.848c-11.168 17.995-27.808 30.624-43.915 42.837-13.675 10.379-26.603 20.192-36.128 32.896-16.405 21.867-20.864 52.565-11.371 78.208 1.088 2.944 2.357 5.813 3.797 8.597-5.963 1.387-12.011 2.56-18.133 3.52-.875-1.941-1.685-3.925-2.421-5.92-11.531-31.189-6.101-68.523 13.835-95.125 11.029-14.699 25.568-25.728 39.627-36.405 15.488-11.744 30.101-22.837 39.552-38.037 12.949-20.864 13.835-49.419 2.197-71.04-6.059-11.253-15.552-20.715-26.72-27.275-10.293-6.08-22.027-9.685-33.813-10.016l.245-8.928.245-8.917c18.72.501 36.917 7.296 51.669 18.581 9.845 7.531 18.165 17.067 24.085 28.075 14.817 27.498 13.74 62.421-2.751 88.949z" fill="#0092ff"/><path d="m401.653 342.848c-11.168 17.995-27.808 30.624-43.915 42.837-13.675 10.379-26.603 20.192-36.128 32.896-16.405 21.867-20.864 52.565-11.371 78.208 1.088 2.944 2.357 5.813 3.797 8.597-2.987.693-5.995 1.333-9.024 1.92-1.173-2.421-2.229-4.896-3.157-7.424-10.56-28.544-5.653-62.304 12.608-86.667 22.005-29.323 60.267-43.936 79.616-75.083 14.731-23.733 15.712-55.392 2.464-79.989-5.952-11.072-14.677-20.523-25.035-27.627-12.651-8.715-27.733-13.931-43.104-14.357l.245-8.917c18.72.501 36.917 7.296 51.669 18.581 9.845 7.531 18.165 17.067 24.085 28.075 14.818 27.499 13.741 62.422-2.75 88.95z" fill="#0076ff"/></g><g><g><g><g><path d="m487.062 194.889c1.193 12.294-7.804 23.229-20.102 24.422l-138.213 13.41c-12.298 1.193-23.229-7.808-24.422-20.102-1.193-12.298 7.804-23.229 20.102-24.422l138.214-13.41c12.297-1.193 23.228 7.804 24.421 20.102z" fill="#aeadb2"/><path d="m435.075 176.412h23.791v44.733h-23.791z" fill="#0076ff" transform="matrix(.995 -.097 .097 .995 -17.107 44.094)"/></g><g><path d="m268.798 15.233c-12.293 1.193-21.295 12.124-20.102 24.422l13.41 138.214c1.193 12.298 12.128 21.295 24.422 20.102 12.298-1.193 21.295-12.124 20.102-24.422l-13.41-138.214c-1.193-12.298-12.124-21.295-24.422-20.102z" fill="#dddddf"/><path d="m250.322 43.43h44.733v23.791h-44.733z" fill="#0092ff" transform="matrix(.995 -.097 .097 .995 -4.068 26.592)"/></g></g><g><path d="m360.069 227.153-54.806 66.585-98.328-81.33 54.613-66.349c14.287-17.357 39.942-19.846 57.299-5.559l35.664 29.355c17.356 14.286 19.845 39.942 5.558 57.298z" fill="#fff"/><g fill="#dddddf"><path d="m235.218 259.822 18.555 15.669 51.729 18.444 15.311-18.602-98.522-81.094-15.117 18.365z"/><path d="m360.069 227.153-54.806 66.585-49.063-40.78 80.482-97.778 17.828 14.674c17.357 14.287 19.846 39.943 5.559 57.299z"/><path d="m320.574 275.137-15.311 18.601-98.328-81.33 15.117-18.366z"/></g><path d="m320.574 275.137-15.311 18.601-49.064-40.78 15.117-18.366z" fill="#aeadb2"/><g><g><path d="m370.064 183.769c.107-.22.136-.481.077-.739l-.307-1.352-2.086-9.352-.236-1.034-52.814-43.472-.835-.021-9.803-.262-.999-.032c-.333-.015-.639.116-.861.341-.268.236-.43.597-.392.987.012.121.016.236.034.349.094 1.041.214 2.066.355 3.096.235 1.651.543 3.288.909 4.899 2.938 13.104 10.084 24.804 20.592 33.528l.221.182c10.036 8.458 22.524 13.277 35.473 13.918 2.145.11 4.305.097 6.468-.025.93-.049 1.858-.126 2.79-.223l.416-.04.006-.007c.081-.008.167-.023.239-.05.29-.082.528-.282.673-.533.03-.051.059-.101.08-.158z" fill="#0092ff"/></g><path d="m370.141 183.03c.16.715-.34 1.409-1.068 1.484l-.014.001c-16.483 1.69-32.605-3.215-45.363-13.807 0-.001 0-.001 0-.002l17.413-21.154 26.406 21.735 2.325 10.391z" fill="#0076ff"/></g><path d="m412.426 156.045-10.892 13.233c-3.003 3.649-8.399 4.175-12.051 1.169l-77.943-64.156c-3.652-3.006-4.173-8.402-1.169-12.051l10.892-13.233c3.006-3.652 8.402-4.178 12.054-1.173l77.943 64.156c3.651 3.007 4.172 8.403 1.166 12.055z" fill="#0092ff"/><path d="m412.426 156.045-10.892 13.233c-3.003 3.649-8.399 4.175-12.051 1.169l-38.97-32.077 21.777-26.457 38.97 32.077c3.651 3.007 4.172 8.403 1.166 12.055z" fill="#0076ff"/><g><path d="m398.159 155.397c-1.972 2.395-4.131 4.55-6.438 6.46-.411.343-.832.678-1.256 1.005-17.189 13.27-41.847 13.423-59.321-.959-17.477-14.385-22.067-38.613-12.348-58.032.239-.479.49-.954.745-1.426 1.431-2.631 3.13-5.165 5.101-7.56 1.969-2.392 4.126-4.543 6.425-6.45.414-.346.834-.681 1.261-1.011 17.189-13.27 41.853-13.424 59.33.961s22.068 38.625 12.341 58.042c-.239.479-.49.954-.748 1.423-1.423 2.627-3.123 5.155-5.092 7.547z" fill="#fff"/><path d="m398.159 155.397c-1.972 2.395-4.131 4.55-6.438 6.46-.411.343-.832.678-1.256 1.005-17.189 13.27-41.847 13.423-59.321-.959l60.513-73.517c17.477 14.385 22.068 38.625 12.341 58.042-.239.479-.49.954-.748 1.423-1.422 2.626-3.122 5.154-5.091 7.546z" fill="#dddddf"/><path d="m398.164 155.39c-1.972 2.395-4.131 4.55-6.438 6.46l-36.089-29.705 11.529-14.007 36.089 29.705c-1.422 2.628-3.122 5.155-5.091 7.547z" fill="#feb123"/><path d="m367.399 118.34-11.529 14.007-36.33-29.903c1.431-2.631 3.13-5.165 5.101-7.56 1.969-2.392 4.126-4.543 6.425-6.45z" fill="#fdd425"/></g><g><path d="m385.336 144.845c-10.83 13.158-30.233 15.098-43.45 4.388-.064-.05-.127-.102-.19-.154-13.221-10.882-15.116-30.42-4.234-43.64 10.882-13.221 30.42-15.116 43.64-4.234.063.052.126.104.188.157 13.05 10.911 14.876 30.325 4.046 43.483z" fill="#3c3b40"/><path d="m385.336 144.845c-10.882 13.221-30.42 15.116-43.64 4.234l39.406-47.874c13.22 10.882 15.116 30.419 4.234 43.64z" fill="#313133"/><path d="m347.67 127.852c-1.898 2.306-5.307 2.637-7.613.739s-2.637-5.307-.739-7.613 5.307-2.637 7.613-.739 2.637 5.306.739 7.613z" fill="#dddddf"/></g><path d="m332.261 215.356-44.098 53.575c-2.801 3.403-7.832 3.891-11.238 1.087l-41.458-34.124c-3.406-2.803-3.894-7.835-1.093-11.238l44.098-53.575c2.803-3.406 7.835-3.894 11.241-1.091l41.458 34.125c3.406 2.804 3.894 7.835 1.09 11.241z" fill="#313133"/><path d="m332.261 215.356-44.098 53.575c-2.801 3.403-7.832 3.891-11.238 1.087l-20.729-17.062 54.246-65.903 20.729 17.062c3.406 2.804 3.894 7.835 1.09 11.241z" fill="#2b2b2b"/><path d="m316.698 208.143-28.152-23.173c-1.834-1.509-4.538-1.24-6.047.594l-33.137 40.258c-1.509 1.834-1.247 4.532.586 6.041l28.152 23.172c1.826 1.503 4.525 1.241 6.034-.592l33.137-40.259c1.509-1.832 1.253-4.538-.573-6.041z" fill="#0092ff"/><path d="m317.276 214.185-33.14 40.262c-1.508 1.833-4.214 2.095-6.043.589l-14.074-11.585 38.599-46.895 14.074 11.585c1.83 1.507 2.09 4.215.584 6.044z" fill="#0076ff"/><g fill="#fff"><path d="m291.036 210.626c-2.132 2.59-5.96 2.962-8.55.83l-12.699-10.453 7.72-9.38 12.699 10.453c2.591 2.132 2.962 5.959.83 8.55z"/><path d="m275.598 229.381c-2.132 2.59-5.96 2.962-8.55.83l-12.699-10.453 7.72-9.38 12.699 10.453c2.591 2.132 2.962 5.96.83 8.55z"/></g><path d="m304.997 222.117c-2.132 2.59-5.96 2.962-8.55.83l-1.151-.948c-2.59-2.132-2.961-5.96-.83-8.55 2.132-2.59 5.96-2.961 8.55-.83l1.151.948c2.591 2.132 2.962 5.96.83 8.55z" fill="#dddddf"/><path d="m287.578 231.375 1.151.948c2.59 2.132 2.961 5.96.83 8.55-2.132 2.59-5.96 2.962-8.55.83l-1.151-.948c-2.59-2.132-2.961-5.96-.83-8.55 2.132-2.591 5.96-2.962 8.55-.83z" fill="#dddddf"/></g><g><path d="m234.977 259.627-35.16 20.879-18.778 11.152-46.595 27.674-17.458 10.374-.09.049-.173.105c-5.541 3.296-12.698 1.469-15.986-4.066l-22.086-37.191.263-.154 10.033-5.96 17.457-10.374 49.511-29.4 18.778-11.152 32.244-19.153z" fill="#fff"/><path d="m134.449 319.332-17.468 10.374c-5.538 3.289-12.695 1.466-15.984-4.072l-28.076-47.271c-3.249-5.471-1.539-12.579 3.9-15.881 4.862-2.952 10.465-3.623 15.562-2.321 5.04 1.284 9.591 4.492 12.455 9.314z" fill="#dddddf"/><path d="m76.994 262.378 39.988 67.328c-5.538 3.289-12.695 1.466-15.984-4.072l-28.076-47.271c-3.29-5.538-1.466-12.696 4.072-15.985z" fill="#fff"/></g><g><path d="m255.154 434.281-40.743-14.525c-6.072-2.169-9.232-8.834-7.071-14.912l6.925-19.414 18.296-51.313 7.334-20.572 13.635-38.251.015.012 51.719 18.433-.031.098-12.47 34.96-7.334 20.572-19.429 54.507-6.824 19.126-3.921 10.991z" fill="#fff"/><path d="m214.268 385.427-6.823 19.136c-2.163 6.068 1.002 12.74 7.069 14.903l51.787 18.465c5.993 2.137 12.64-.908 14.835-6.88 1.962-5.339 1.543-10.966-.714-15.718-2.229-4.7-6.252-8.548-11.535-10.432z" fill="#dddddf"/><path d="m281.204 430.862-73.759-26.299c-2.163 6.068 1.002 12.74 7.069 14.903l51.787 18.465c6.067 2.163 12.74-1.003 14.903-7.069z" fill="#fff"/></g></g><g fill="#0092ff"><path d="m285.43 349.37-52.868-15.252 7.334-20.572 52.868 15.252z"/><path d="m199.817 280.507-18.778 11.152-25.124-48.944 18.778-11.152z"/></g></g><g><g><path d="m36.276 176.839h1.626c7.203 0 13.042-5.839 13.042-13.042v-1.626h9.297v1.626c0 7.203 5.839 13.042 13.042 13.042h1.626v9.297h-1.626c-7.203 0-13.042 5.839-13.042 13.042v1.626h-9.297v-1.626c0-7.203-5.839-13.042-13.042-13.042h-1.626z" fill="#fff"/></g></g><g><g><path d="m107.937 389.838h1.626c7.203 0 13.042-5.839 13.042-13.042v-1.626h9.297v1.626c0 7.203 5.839 13.042 13.042 13.042h1.626v9.297h-1.626c-7.203 0-13.042 5.839-13.042 13.042v1.626h-9.297v-1.626c0-7.203-5.839-13.042-13.042-13.042h-1.626z" fill="#fff"/></g></g><g><g><path d="m451.915 249.462h1.626c7.203 0 13.042-5.839 13.042-13.042v-1.626h9.297v1.626c0 7.203 5.839 13.042 13.042 13.042h1.626v9.297h-1.626c-7.203 0-13.042 5.839-13.042 13.042v1.626h-9.297v-1.627c0-7.203-5.839-13.042-13.042-13.042h-1.626z" fill="#fff"/></g></g><g><g><path d="m395.786 407.528h1.626c7.203 0 13.042-5.839 13.042-13.042v-1.626h9.297v1.626c0 7.203 5.839 13.042 13.042 13.042h1.626v9.297h-1.626c-7.203 0-13.042 5.839-13.042 13.042v1.626h-9.297v-1.626c0-7.203-5.839-13.042-13.042-13.042h-1.626z" fill="#fff"/></g></g><g><g><path d="m199.009 68.707h1.626c7.203 0 13.042-5.839 13.042-13.042v-1.626h9.297v1.626c0 7.203 5.839 13.042 13.042 13.042h1.626v9.297h-1.626c-7.203 0-13.042 5.839-13.042 13.042v1.626h-9.297v-1.626c0-7.203-5.839-13.042-13.042-13.042h-1.626z" fill="#fff"/></g></g></g></g></svg>